<svg xmlns="http://www.w3.org/2000/svg" width="66.255" height="27.783" viewBox="0 0 66.255 27.783">
  <g id="Group_82" data-name="Group 82" transform="translate(-67 -80)">
    <rect id="Rectangle_90" data-name="Rectangle 90" width="1.038" height="1.038" transform="translate(117.184 102.497)"/>
    <rect id="Rectangle_88" data-name="Rectangle 88" width="66.255" height="20.988" transform="translate(67 80)" fill="#008fff"/>
    <g id="Group_83" data-name="Group 83">
      <path id="Path_9" data-name="Path 9" d="M446.111,222.737l2.6,10.35,2.6-10.358h3.961l2.6,10.358,2.621-10.35h3.681l-3.291,13.118a3.158,3.158,0,0,1-6.11,0l-1.524-6.088-1.524,6.088a3.158,3.158,0,0,1-6.11,0l-3.291-13.118Z" transform="translate(-372.876 -139.984)" fill="#fff"/>
      <path id="Path_10" data-name="Path 10" d="M491.887,228.754H477.223V226.1h14.664V222.74H476.855a2.945,2.945,0,0,0-2.945,2.945V234.9a2.945,2.945,0,0,0,2.945,2.945H491.88v-3.364H477.223v-2.716h14.664Z" transform="translate(-381.211 -139.987)" fill="#fff"/>
      <path id="Path_11" data-name="Path 11" d="M501.25,222.7v15.025h15.025a2.945,2.945,0,0,0,2.945-2.945V231.63a1.472,1.472,0,0,0-1.472-1.472,1.472,1.472,0,0,0,1.472-1.472v-3.151a2.945,2.945,0,0,0-2.945-2.945H501.25Zm3.269,9.025h11.4v2.635h-11.4Zm0-3v-2.65h11.4v2.65Z" transform="translate(-388.424 -139.947)" fill="#fff"/>
    </g>
    <path id="Path_12" data-name="Path 12" d="M450.6,249.56h3.622a1.347,1.347,0,0,1,1.347,1.347v2.451a1.347,1.347,0,0,1-1.347,1.347h-3.615a1.347,1.347,0,0,1-1.347-1.347v-2.451a1.347,1.347,0,0,1,1.347-1.347Zm0,1.038a.317.317,0,0,0-.317.317v2.451a.317.317,0,0,0,.317.317h3.622a.317.317,0,0,0,.317-.317v-2.451a.317.317,0,0,0-.317-.294Z" transform="translate(-374.707 -147.063)"/>
    <path id="Path_13" data-name="Path 13" d="M459.459,249.56H460.5v3.806a.317.317,0,0,0,.317.317h3.615a.317.317,0,0,0,.317-.317V249.56h.994v3.806a1.347,1.347,0,0,1-1.347,1.347h-3.615a1.347,1.347,0,0,1-1.347-1.347V249.56Z" transform="translate(-377.39 -147.063)"/>
    <path id="Path_14" data-name="Path 14" d="M440.045,253.418v2.047H439V252.38h6.309v1.038Z" transform="translate(-372 -147.807)"/>
    <path id="Path_15" data-name="Path 15" d="M445.309,250.628V249.59h-5a1.354,1.354,0,0,0-1.31,1.038Z" transform="translate(-372 -147.071)"/>
    <path id="Path_16" data-name="Path 16" d="M476.016,254.72h-1.038v-3.813a.317.317,0,0,0-.317-.317h-3.931v4.123H469.7V249.56h4.962a1.347,1.347,0,0,1,1.347,1.347v3.821Z" transform="translate(-380.1 -147.063)"/>
    <path id="Path_17" data-name="Path 17" d="M479.93,249.557h4.962a1.347,1.347,0,0,1,1.347,1.347v2.451a1.347,1.347,0,0,1-1.347,1.347H479.93v-3.085h1.038v2.054H484.9a.317.317,0,0,0,.317-.317V250.9a.317.317,0,0,0-.317-.317h-4.962V249.55Z" transform="translate(-382.799 -147.06)"/>
    <path id="Path_18" data-name="Path 18" d="M503.751,249.56V250.6h-2.577v4.123h-1.045V250.6H497.56V249.56Z" transform="translate(-387.45 -147.063)"/>
    <rect id="Rectangle_89" data-name="Rectangle 89" width="1.038" height="3.085" transform="translate(117.184 104.573)"/>
    <path id="Path_19" data-name="Path 19" d="M511.517,249.56h3.615a1.347,1.347,0,0,1,1.347,1.347v2.451a1.347,1.347,0,0,1-1.347,1.347h-3.615a1.347,1.347,0,0,1-1.347-1.347v-2.451a1.347,1.347,0,0,1,1.347-1.347Zm0,1.038a.317.317,0,0,0-.317.317v2.451a.317.317,0,0,0,.317.317h3.615a.317.317,0,0,0,.317-.317v-2.451a.317.317,0,0,0-.317-.317Z" transform="translate(-390.777 -147.063)"/>
    <path id="Path_20" data-name="Path 20" d="M526.734,254.72H525.7v-3.813a.317.317,0,0,0-.317-.317h-3.931v4.123H520.41V249.56h4.962a1.347,1.347,0,0,1,1.347,1.347v3.821Z" transform="translate(-393.479 -147.063)"/>
    <path id="Path_21" data-name="Path 21" d="M489.27,254.72h1.045l1.185-2.047h2.547l1.185,2.047h1.045L493.3,249.56h-1.045l-.6,1.038h1.2l.6,1.038h-2.393Z" transform="translate(-385.263 -147.063)" stroke="#000" stroke-miterlimit="2.61" stroke-width="0.25"/>
  </g>
</svg>
