<svg width="110" height="109" viewBox="0 0 110 109" fill="none" xmlns="http://www.w3.org/2000/svg">
<path d="M4.95 54.5C4.64 3.72999 72.72 -18.68 102.07 28.49L79.54 41.51C65.94 19.04 32.18 27.08 30.97 54.5C31.33 79.78 64.52 91.52 79.54 67.49L102.07 80.51C76.2 125.37 6.25 109.23 4.95 54.5Z" fill="#FCBE36"/>
<path d="M90.81 39.76H95.1L92.17 68.04H87.8L90.81 39.76Z" fill="#FCBE36"/>
<path d="M99.99 39.76H104.28L101.35 68.04H96.98L99.99 39.76Z" fill="#FCBE36"/>
<path d="M107.45 50.61H86V46.47H107.45V50.61Z" fill="#FCBE36"/>
<path d="M106.25 60.7H84.8V56.56H106.25V60.7Z" fill="#FCBE36"/>
</svg>
