<svg width="61" height="56" viewBox="0 0 61 56" fill="none" xmlns="http://www.w3.org/2000/svg">
<g clip-path="url(#clip0_10_56)">
<path d="M60.9133 27.7223C60.9133 23.6015 55.8881 19.6962 48.1836 17.2744C49.9616 9.21022 49.1714 2.79439 45.6895 0.740309C44.887 0.258488 43.9486 0.0302574 42.9238 0.0302574V2.85779C43.4918 2.85779 43.9486 2.9719 44.3314 3.18745C46.0106 4.17646 46.739 7.94227 46.1711 12.7858C46.0353 13.9777 45.813 15.233 45.5414 16.5136C43.1214 15.905 40.4791 15.4359 37.7011 15.1315C36.0343 12.7858 34.3057 10.6557 32.5648 8.79179C36.5899 4.9499 40.368 2.84511 42.9362 2.84511V0.0175781C39.5408 0.0175781 35.0959 2.50276 30.6016 6.81379C26.1073 2.52812 21.6625 0.0682963 18.2671 0.0682963V2.89582C20.8229 2.89582 24.6134 4.98794 28.6385 8.80447C26.9099 10.6684 25.1813 12.7858 23.5392 15.1315C20.7488 15.4359 18.1066 15.905 15.6866 16.5263C15.4026 15.2583 15.1927 14.0284 15.0445 12.8492C14.4642 8.00567 15.1803 4.23985 16.8472 3.23817C17.2176 3.00994 17.6991 2.90851 18.2671 2.90851V0.0809756C17.2299 0.0809756 16.2916 0.309207 15.4767 0.791028C12.0072 2.84511 11.2293 9.24826 13.0196 17.2871C5.33985 19.7215 0.339355 23.6141 0.339355 27.7223C0.339355 31.8431 5.36454 35.7484 13.069 38.1702C11.2911 46.2344 12.0813 52.6502 15.5631 54.7043C16.3656 55.1861 17.304 55.4143 18.3411 55.4143C21.7365 55.4143 26.1814 52.9291 30.6757 48.6181C35.17 52.9038 39.6149 55.3636 43.0103 55.3636C44.0474 55.3636 44.9858 55.1354 45.8007 54.6536C49.2701 52.5995 50.048 46.1963 48.2577 38.1575C55.9128 35.7357 60.9133 31.8305 60.9133 27.7223ZM44.8376 19.2651C44.3808 20.9007 43.8128 22.5871 43.1708 24.2735C42.6645 23.2591 42.1336 22.2447 41.5533 21.2304C40.9854 20.216 40.3804 19.227 39.7754 18.2634C41.5286 18.5297 43.2202 18.8593 44.8376 19.2651ZM39.1827 32.7687C38.2197 34.4805 37.2319 36.1034 36.2071 37.6123C34.3674 37.7771 32.503 37.8659 30.6263 37.8659C28.7619 37.8659 26.8975 37.7771 25.0702 37.625C24.0454 36.1161 23.0453 34.5058 22.0823 32.8068C21.1439 31.1458 20.292 29.4594 19.5141 27.7603C20.2796 26.0613 21.1439 24.3622 22.0699 22.7012C23.033 20.9895 24.0207 19.3665 25.0455 17.8576C26.8852 17.6928 28.7496 17.6041 30.6263 17.6041C32.4907 17.6041 34.3551 17.6928 36.1824 17.845C37.2072 19.3538 38.2073 20.9641 39.1704 22.6632C40.1087 24.3242 40.9607 26.0106 41.7385 27.7096C40.9607 29.4087 40.1087 31.1077 39.1827 32.7687ZM43.1708 31.1204C43.8375 32.8195 44.4055 34.5185 44.8746 36.1668C43.2572 36.5726 41.5533 36.9149 39.7877 37.1812C40.3927 36.2049 40.9977 35.2032 41.5657 34.1762C42.1336 33.1618 42.6645 32.1348 43.1708 31.1204ZM30.651 44.6494C29.5027 43.4322 28.3545 42.0755 27.2186 40.592C28.3298 40.6427 29.4657 40.6807 30.614 40.6807C31.7746 40.6807 32.9228 40.6554 34.0464 40.592C32.9352 42.0755 31.7869 43.4322 30.651 44.6494ZM21.4649 37.1812C19.7116 36.9149 18.0201 36.5853 16.4027 36.1795C16.8595 34.5439 17.4275 32.8575 18.0695 31.1711C18.5757 32.1855 19.1066 33.1998 19.687 34.2142C20.2673 35.2286 20.8599 36.2176 21.4649 37.1812ZM30.5893 10.7952C31.7375 12.0124 32.8858 13.3691 34.0217 14.8526C32.9105 14.8019 31.7746 14.7638 30.6263 14.7638C29.4657 14.7638 28.3174 14.7892 27.1939 14.8526C28.3051 13.3691 29.4534 12.0124 30.5893 10.7952ZM21.4526 18.2634C20.8476 19.2397 20.2426 20.2414 19.6746 21.2684C19.1066 22.2828 18.5757 23.2971 18.0695 24.3115C17.4028 22.6125 16.8348 20.9134 16.3656 19.2651C17.9831 18.872 19.687 18.5297 21.4526 18.2634ZM10.2786 34.1381C5.90781 32.2235 3.08037 29.713 3.08037 27.7223C3.08037 25.7316 5.90781 23.2084 10.2786 21.3065C11.3405 20.8373 12.5011 20.4189 13.6987 20.0258C14.4025 22.511 15.3285 25.0976 16.4768 27.7477C15.3408 30.385 14.4272 32.9589 13.7357 35.4314C12.5134 35.0384 11.3528 34.6073 10.2786 34.1381ZM16.9212 52.2571C15.2421 51.2681 14.5136 47.5023 15.0816 42.6587C15.2174 41.4669 15.4396 40.2116 15.7113 38.931C18.1312 39.5396 20.7735 40.0087 23.5515 40.313C25.2184 42.6587 26.9469 44.7889 28.6878 46.6528C24.6628 50.4947 20.8846 52.5995 18.3164 52.5995C17.7608 52.5868 17.2917 52.4727 16.9212 52.2571ZM46.2081 42.5954C46.7884 47.4389 46.0723 51.2047 44.4055 52.2064C44.035 52.4346 43.5535 52.5361 42.9856 52.5361C40.4297 52.5361 36.6393 50.444 32.6142 46.6274C34.3427 44.7635 36.0713 42.6461 37.7134 40.3004C40.5038 39.9961 43.1461 39.5269 45.5661 38.9056C45.85 40.1862 46.0723 41.4162 46.2081 42.5954ZM50.9617 34.1381C49.8998 34.6073 48.7392 35.0257 47.5416 35.4188C46.8378 32.9336 45.9118 30.347 44.7635 27.6969C45.8994 25.0596 46.8131 22.4857 47.5045 20.0132C48.7269 20.4062 49.8875 20.8373 50.974 21.3065C55.3448 23.2211 58.1723 25.7316 58.1723 27.7223C58.1599 29.713 55.3325 32.2362 50.9617 34.1381Z" fill="#FCBE36"/>
<path d="M30.6137 33.5168C33.73 33.5168 36.2563 30.9225 36.2563 27.7223C36.2563 24.522 33.73 21.9277 30.6137 21.9277C27.4974 21.9277 24.9712 24.522 24.9712 27.7223C24.9712 30.9225 27.4974 33.5168 30.6137 33.5168Z" fill="#FCBE36"/>
</g>
<defs>
<clipPath id="clip0_10_56">
<rect width="61" height="56" fill="white"/>
</clipPath>
</defs>
</svg>
