<svg width="94" height="84" viewBox="0 0 94 84" fill="none" xmlns="http://www.w3.org/2000/svg">
<path d="M37.0876 60.874C36.7326 60.874 36.3749 60.7519 36.0831 60.5033L26.0408 51.9523C25.6944 51.657 25.4952 51.2258 25.4952 50.7702C25.4952 50.3156 25.6953 49.8843 26.0408 49.589L36.0831 41.038C36.7352 40.4821 37.7146 40.5609 38.2706 41.213C38.8257 41.8659 38.7478 42.8454 38.0948 43.4005L29.4408 50.7702L38.0948 58.14C38.7478 58.6959 38.8257 59.6754 38.2706 60.3275C37.9632 60.6886 37.5267 60.874 37.0876 60.874Z" fill="#FCBE36"/>
<path d="M56.9128 60.874C56.4737 60.874 56.0372 60.6886 55.7307 60.3275C55.1747 59.6754 55.2535 58.6959 55.9056 58.14L64.5596 50.7702L55.9056 43.4005C55.2535 42.8454 55.1747 41.8659 55.7307 41.213C56.2858 40.5609 57.2661 40.4821 57.9173 41.038L67.9596 49.589C68.306 49.8843 68.5051 50.3156 68.5051 50.7702C68.5051 51.2258 68.306 51.657 67.9596 51.9523L57.9173 60.5033C57.6255 60.7519 57.2678 60.874 56.9128 60.874Z" fill="#FCBE36"/>
<path d="M43.4447 67.2876C43.3382 67.2876 43.2308 67.2763 43.1226 67.2538C42.2843 67.0772 41.7473 66.2536 41.924 65.4153L48.1826 35.7C48.3593 34.8617 49.182 34.3247 50.0212 34.5014C50.8595 34.6781 51.3964 35.5008 51.2197 36.3399L44.9611 66.0553C44.8069 66.7862 44.1626 67.2876 43.4447 67.2876Z" fill="#FCBE36"/>
<path d="M83.5802 83.4766H10.4198C4.67471 83.4766 0 78.8028 0 73.0568V10.9623C0 5.2172 4.67471 0.54248 10.4198 0.54248H83.5802C89.3253 0.54248 94 5.2172 94 10.9623V73.0568C94 78.8028 89.3253 83.4766 83.5802 83.4766ZM10.4198 3.64625C6.38594 3.64625 3.10377 6.9284 3.10377 10.9623V73.0568C3.10377 77.0907 6.38594 80.3729 10.4198 80.3729H83.5802C87.6141 80.3729 90.8962 77.0907 90.8962 73.0568V10.9623C90.8962 6.9284 87.6141 3.64625 83.5802 3.64625H10.4198Z" fill="#FCBE36"/>
<path d="M92.4481 25.3923H1.55189C0.694539 25.3923 0 24.6978 0 23.8405C0 22.984 0.694539 22.2886 1.55189 22.2886H92.4481C93.3055 22.2886 94 22.984 94 23.8405C94 24.6978 93.3055 25.3923 92.4481 25.3923Z" fill="#FCBE36"/>
<path d="M26.5154 17.9663C23.8082 17.9663 21.6042 15.7623 21.6042 13.0552C21.6042 10.3472 23.8082 8.14398 26.5154 8.14398C29.2234 8.14398 31.4265 10.3472 31.4265 13.0552C31.4265 15.7623 29.2234 17.9663 26.5154 17.9663ZM26.5154 11.2478C25.5195 11.2478 24.708 12.0584 24.708 13.0552C24.708 14.052 25.5195 14.8625 26.5154 14.8625C27.5122 14.8625 28.3227 14.052 28.3227 13.0552C28.3227 12.0584 27.5122 11.2478 26.5154 11.2478Z" fill="#FCBE36"/>
<path d="M11.4261 17.9189C8.71814 17.9189 6.51501 15.7158 6.51501 13.0078C6.51501 10.2998 8.71814 8.09668 11.4261 8.09668C14.1342 8.09668 16.3373 10.2998 16.3373 13.0078C16.3373 15.7158 14.1342 17.9189 11.4261 17.9189ZM11.4261 11.2005C10.4302 11.2005 9.61879 12.0119 9.61879 13.0078C9.61879 14.0046 10.4302 14.8152 11.4261 14.8152C12.4229 14.8152 13.2335 14.0046 13.2335 13.0078C13.2335 12.0119 12.4229 11.2005 11.4261 11.2005Z" fill="#FCBE36"/>
<path d="M41.6047 18.0133C38.8976 18.0133 36.6945 15.8102 36.6945 13.1022C36.6945 10.395 38.8976 8.19189 41.6047 8.19189C44.3127 8.19189 46.5159 10.395 46.5159 13.1022C46.5159 15.8102 44.3127 18.0133 41.6047 18.0133ZM41.6047 11.2948C40.6088 11.2948 39.7982 12.1054 39.7982 13.1022C39.7982 14.0989 40.6088 14.9095 41.6047 14.9095C42.6015 14.9095 43.4121 14.0989 43.4121 13.1022C43.4121 12.1054 42.6015 11.2948 41.6047 11.2948Z" fill="#FCBE36"/>
</svg>
