<svg width="92" height="92" viewBox="0 0 92 92" fill="none" xmlns="http://www.w3.org/2000/svg">
<path d="M69.23 63.825L66.0043 65.6938C65.1648 65.0353 64.2379 64.4968 63.25 64.0938V60.375H54.625V64.0938C53.6374 64.4954 52.7104 65.0325 51.8708 65.6894L51.75 65.6204V57.5C51.75 53.5498 43.5563 51.75 35.9375 51.75C28.3188 51.75 20.125 53.5498 20.125 57.5V83.375C20.125 87.3252 28.3188 89.125 35.9375 89.125C43.1897 89.125 50.9522 87.4891 51.6781 83.9213L51.8708 83.8106C52.7104 84.4675 53.6374 85.0046 54.625 85.4062V89.125H63.25V85.4062C64.2376 85.0046 65.1646 84.4675 66.0043 83.8106L69.23 85.6793L73.5425 78.2043L70.3211 76.3442C70.4763 75.289 70.4763 74.2168 70.3211 73.1616L73.5425 71.3L69.23 63.825ZM48.645 63.825L46.5161 67.5122C43.0932 68.5753 39.5208 69.0777 35.9375 69C27.5267 69 23.2156 66.9012 23 66.125V60.9974C23.0201 61.0075 23.0446 61.0147 23.0647 61.0247C23.4106 61.1953 23.781 61.3559 24.1759 61.5063C24.2808 61.5466 24.3958 61.5825 24.5051 61.6228C24.8098 61.732 25.1232 61.8369 25.4495 61.9347C25.6048 61.9807 25.7614 62.0238 25.921 62.0669C26.2325 62.1532 26.5521 62.2342 26.8798 62.3099C27.0365 62.3473 27.1918 62.3846 27.3513 62.4177C27.7615 62.5059 28.1803 62.5864 28.6077 62.6592L28.8492 62.7037C29.3609 62.7871 29.8832 62.8609 30.4161 62.9251L30.8761 62.974C31.2656 63.0171 31.6566 63.0559 32.0534 63.0876C32.2388 63.1034 32.4243 63.1178 32.6111 63.1307C32.9978 63.1566 33.3859 63.1796 33.7755 63.1968L34.2858 63.2198C34.8378 63.2385 35.3884 63.25 35.9375 63.25C36.4866 63.25 37.0372 63.2385 37.5892 63.2198L38.0995 63.1968C38.4891 63.1796 38.8772 63.1566 39.2639 63.1307C39.4508 63.1178 39.6362 63.1034 39.8216 63.0876C40.2184 63.0559 40.6094 63.0171 40.9989 62.974L41.4589 62.9251C41.9908 62.86 42.5131 62.7862 43.0258 62.7037L43.2673 62.6592C43.6957 62.5854 44.1145 62.5049 44.5237 62.4177C44.6833 62.3846 44.8385 62.3473 44.9952 62.3099C45.3229 62.2342 45.6425 62.1532 45.954 62.0669C46.1136 62.0238 46.2703 61.9807 46.4255 61.9347C46.7518 61.8369 47.0652 61.732 47.3699 61.6228C47.4792 61.5825 47.5942 61.5466 47.6991 61.5063C48.093 61.3568 48.4634 61.1963 48.8103 61.0247C48.8304 61.0147 48.8549 61.0075 48.875 60.9974V63.9601L48.645 63.825ZM35.9375 54.625C36.4608 54.625 36.9682 54.6336 37.4613 54.648C37.6352 54.648 37.7962 54.6653 37.9673 54.6724C38.2763 54.6854 38.5883 54.6969 38.8844 54.7156C39.1273 54.7314 39.3544 54.7529 39.5888 54.7716C39.7972 54.7889 40.02 54.8033 40.2141 54.8219C40.5016 54.8493 40.7632 54.8823 41.032 54.9139C41.1686 54.9312 41.3195 54.9441 41.4446 54.9614C41.7982 55.0074 42.1331 55.0591 42.4609 55.1051L42.5759 55.1209C46.5664 55.7836 48.6623 56.9293 48.8678 57.4885C48.8573 57.5134 48.8449 57.5375 48.8304 57.5604C48.8148 57.5916 48.7965 57.6214 48.7758 57.6495C48.7543 57.6754 48.7226 57.7027 48.6968 57.73C48.6709 57.7573 48.6292 57.8019 48.5832 57.8407C48.5372 57.8795 48.5099 57.8953 48.4739 57.9226C48.438 57.9499 48.3647 58.006 48.2971 58.0506C48.2554 58.0779 48.2023 58.1066 48.1534 58.1354C48.0772 58.1814 48.0096 58.2274 47.9148 58.2791C47.8616 58.3079 47.7969 58.3366 47.7408 58.3654C47.6431 58.4157 47.5482 58.4646 47.4375 58.5091L47.2348 58.5954C47.1155 58.6457 46.9991 58.6974 46.8668 58.7492C46.7935 58.7779 46.7087 58.8067 46.6311 58.8354C46.4873 58.8872 46.3536 58.9389 46.1998 58.9892C46.1107 59.0194 46.0101 59.0482 45.9123 59.0784C45.7556 59.1272 45.6033 59.1776 45.4351 59.2221C45.3273 59.2538 45.2079 59.2825 45.0958 59.3127C44.9262 59.3587 44.7594 59.4047 44.5783 59.4492C44.4504 59.4809 44.3095 59.5096 44.1758 59.5398C43.9961 59.5815 43.8208 59.6232 43.631 59.662C43.4772 59.6936 43.3104 59.7209 43.1494 59.7511C42.9626 59.7856 42.78 59.823 42.5845 59.8546C42.389 59.8863 42.2079 59.9107 42.0196 59.9394C41.8313 59.9682 41.6458 59.9984 41.4446 60.0243C41.2433 60.0501 41.0133 60.0746 40.7919 60.099C40.5964 60.1206 40.4081 60.145 40.2069 60.1651C39.9625 60.1881 39.7023 60.2054 39.4479 60.2255C39.2567 60.2399 39.0741 60.2586 38.8729 60.2715C38.5523 60.2916 38.2159 60.3046 37.8796 60.3175C37.7358 60.3175 37.5921 60.3333 37.4483 60.3391C36.9553 60.3534 36.4421 60.3621 35.9246 60.3621C34.8737 60.3621 33.8862 60.329 32.9633 60.2701C26.5233 59.8589 23.2013 58.1785 22.9914 57.4942C23.2631 56.7022 27.5698 54.625 35.9375 54.625ZM23 69.6138C26.0576 71.1562 31.1104 71.875 35.9375 71.875C38.801 71.8941 41.659 71.6225 44.4676 71.0643L44.3325 71.2986L47.5539 73.1587C47.4771 73.6857 47.4382 74.2175 47.4375 74.75C47.4375 75.0734 47.4792 75.4055 47.5094 75.7347C43.8182 77.1358 39.8826 77.7787 35.9375 77.625C27.5267 77.625 23.2156 75.5263 23 74.75V69.6138ZM23 83.375V78.2474C26.0604 79.7812 31.1161 80.5 35.9375 80.5C39.0193 80.5251 42.094 80.2015 45.103 79.5354L47.8026 84.2145C46.0331 85.1287 42.0857 86.25 35.9375 86.25C27.5267 86.25 23.2156 84.1512 23 83.375ZM67.3196 72.7533C67.6435 74.0647 67.6435 75.4353 67.3196 76.7467L67.0738 77.7874L69.6153 79.2551L68.1778 81.7449L65.6348 80.2772L64.8557 81.0103C63.8775 81.9376 62.6961 82.6233 61.4057 83.0128L60.375 83.3175V86.25H57.5V83.3175L56.4722 83.0128C55.1818 82.6233 54.0004 81.9376 53.0222 81.0103L52.2431 80.2772L49.7001 81.7449L48.2626 79.2551L50.8041 77.7874L50.5583 76.7467C50.2344 75.4353 50.2344 74.0647 50.5583 72.7533L50.8041 71.7126L48.2626 70.2449L49.7001 67.7551L52.2431 69.2228L53.0222 68.4897C54.0004 67.5624 55.1818 66.8767 56.4722 66.4872L57.5 66.1825V63.25H60.375V66.1825L61.4028 66.4872C62.6932 66.8767 63.8746 67.5624 64.8528 68.4897L65.6319 69.2228L68.1749 67.7551L69.6124 70.2449L67.0738 71.7126L67.3196 72.7533Z" fill="#FCBE36"/>
<path d="M58.9375 69C57.8003 69 56.6886 69.3372 55.743 69.9691C54.7974 70.6009 54.0604 71.4989 53.6252 72.5496C53.19 73.6002 53.0761 74.7564 53.298 75.8718C53.5199 76.9872 54.0675 78.0117 54.8716 78.8159C55.6758 79.62 56.7003 80.1677 57.8157 80.3895C58.9311 80.6114 60.0873 80.4975 61.1379 80.0623C62.1886 79.6271 63.0866 78.8901 63.7185 77.9445C64.3503 76.999 64.6875 75.8872 64.6875 74.75C64.6875 73.225 64.0817 71.7625 63.0034 70.6841C61.925 69.6058 60.4625 69 58.9375 69ZM58.9375 77.625C58.3689 77.625 57.813 77.4564 57.3402 77.1405C56.8675 76.8246 56.499 76.3756 56.2814 75.8502C56.0638 75.3249 56.0068 74.7468 56.1177 74.1891C56.2287 73.6314 56.5025 73.1191 56.9046 72.7171C57.3066 72.315 57.8189 72.0412 58.3766 71.9302C58.9343 71.8193 59.5124 71.8762 60.0377 72.0938C60.5631 72.3115 61.0121 72.6799 61.328 73.1527C61.6439 73.6255 61.8125 74.1814 61.8125 74.75C61.8125 75.5125 61.5096 76.2438 60.9704 76.7829C60.4313 77.3221 59.7 77.625 58.9375 77.625Z" fill="#FCBE36"/>
<path d="M54.625 2.875H37.375V31.625H54.625V2.875ZM51.75 5.75V23H40.25V5.75H51.75ZM46 28.75H40.25V25.875H51.75V28.75H46Z" fill="#FCBE36"/>
<path d="M47.4375 27.3124C47.4322 26.9318 47.2833 26.5673 47.0206 26.2918C46.8505 26.1257 46.6425 26.0036 46.4146 25.9359C46.1866 25.8683 45.9457 25.8572 45.7125 25.9037C45.6224 25.9193 45.5352 25.9484 45.4538 25.9899C45.3618 26.0216 45.2743 26.0651 45.1936 26.1193C45.119 26.1727 45.0475 26.2303 44.9794 26.2918C44.7161 26.5669 44.5671 26.9317 44.5625 27.3124C44.5625 27.6937 44.7139 28.0593 44.9835 28.3289C45.2531 28.5985 45.6188 28.7499 46 28.7499C46.3812 28.7499 46.7469 28.5985 47.0165 28.3289C47.2861 28.0593 47.4375 27.6937 47.4375 27.3124Z" fill="#FCBE36"/>
<path d="M18.6875 34.5H15.8125V43.125H44.5625V48.875H47.4375V43.125H76.1875V34.5H73.3125V40.25H47.4375V34.5H44.5625V40.25H18.6875V34.5Z" fill="#FCBE36"/>
<path d="M11.5 28.75H8.625V31.625H25.875V28.75H23V25.875H31.625V2.875H2.875V25.875H11.5V28.75ZM20.125 28.75H14.375V25.875H20.125V28.75ZM5.75 5.75H28.75V17.25H5.75V5.75ZM5.75 23V20.125H28.75V23H5.75Z" fill="#FCBE36"/>
<path d="M60.375 31.625H89.125V2.875H60.375V31.625ZM86.25 28.75H63.25V14.375H86.25V28.75ZM63.25 5.75H86.25V11.5H63.25V5.75Z" fill="#FCBE36"/>
<path d="M66.9154 7.43208C66.8419 7.37538 66.7592 7.33162 66.671 7.30271C66.5849 7.25901 66.4921 7.22986 66.3964 7.21646C66.1655 7.17021 65.9267 7.18142 65.7011 7.2491C65.4755 7.31678 65.27 7.43885 65.1027 7.60458C64.9727 7.74202 64.8703 7.90303 64.8008 8.07896C64.6888 8.34039 64.6577 8.6294 64.7115 8.90868C64.7653 9.18797 64.9016 9.44473 65.1027 9.64583C65.2425 9.77269 65.4029 9.87478 65.5771 9.94771C65.7492 10.0236 65.9352 10.0628 66.1233 10.0628C66.3114 10.0628 66.4974 10.0236 66.6696 9.94771C66.8435 9.87444 67.0039 9.77238 67.1439 9.64583C67.2778 9.51191 67.3837 9.35272 67.4555 9.17751C67.5274 9.0023 67.5636 8.81456 67.5622 8.62521C67.557 8.2446 67.4081 7.88005 67.1454 7.60458C67.0747 7.53954 66.9976 7.48175 66.9154 7.43208Z" fill="#FCBE36"/>
<path d="M71.4578 7.60449C71.1798 7.34799 70.8154 7.20557 70.4372 7.20557C70.0589 7.20557 69.6946 7.34799 69.4166 7.60449C69.2866 7.74193 69.1842 7.90294 69.1147 8.07887C69.041 8.25169 69.002 8.43727 68.9997 8.62512C68.9947 8.81369 69.0341 9.0008 69.1147 9.17137C69.188 9.34532 69.29 9.50569 69.4166 9.64574C69.6177 9.84687 69.8744 9.98313 70.1537 10.0369C70.433 10.0907 70.722 10.0596 70.9834 9.94762C71.1574 9.87435 71.3178 9.77229 71.4578 9.64574C71.5844 9.50569 71.6864 9.34532 71.7597 9.17137C71.8356 8.99925 71.8748 8.81322 71.8748 8.62512C71.8748 8.43702 71.8356 8.25098 71.7597 8.07887C71.6868 7.90473 71.5847 7.7443 71.4578 7.60449Z" fill="#FCBE36"/>
<path d="M75.7709 7.60439C75.6309 7.47783 75.4705 7.37578 75.2966 7.30251C75.0346 7.18698 74.7429 7.1568 74.4628 7.21626C74.3727 7.23191 74.2855 7.26099 74.204 7.30251C74.1121 7.3342 74.0246 7.37769 73.9439 7.43189C73.8693 7.48532 73.7978 7.54291 73.7297 7.60439C73.5967 7.73941 73.4938 7.90108 73.4278 8.07876C73.352 8.2509 73.3129 8.43693 73.3129 8.62501C73.3129 8.8131 73.352 8.99912 73.4278 9.17126C73.5011 9.34522 73.6031 9.50559 73.7297 9.64564C73.8695 9.7725 74.0299 9.87459 74.204 9.94751C74.3769 10.0212 74.5625 10.0602 74.7503 10.0625C75.1314 10.0597 75.4968 9.91042 75.7709 9.64564C75.8975 9.50559 75.9995 9.34522 76.0728 9.17126C76.1487 8.99915 76.1879 8.81311 76.1879 8.62501C76.1879 8.43691 76.1487 8.25088 76.0728 8.07876C76.0068 7.90108 75.9039 7.73941 75.7709 7.60439Z" fill="#FCBE36"/>
</svg>
