<svg width="47" height="63" viewBox="0 0 47 63" fill="none" xmlns="http://www.w3.org/2000/svg">
<g clip-path="url(#clip0_9_39)">
<path d="M34.1405 38.3733C35.3386 37.5516 37.0012 36.8403 37.0012 36.8403C37.0012 36.8403 32.2701 37.6988 27.5634 38.0913C21.8054 38.5695 15.6195 38.6676 12.5143 38.2507C5.16702 37.2696 16.5486 34.5593 16.5486 34.5593C16.5486 34.5593 12.1353 34.265 6.69516 36.8894C0.276985 40.0044 22.5878 41.427 34.1405 38.3733ZM23.7003 34.4366C21.3775 29.2 13.5412 24.6011 23.7003 16.5561C36.3728 6.52432 29.8739 0 29.8739 0C32.5023 10.3629 20.6318 13.5024 16.3408 19.9409C13.419 24.3436 17.7711 29.0651 23.7003 34.4366ZM37.7102 12.8279C37.7225 12.8279 16.2919 18.1994 26.5243 30.0217C29.5439 33.5046 25.7296 36.6441 25.7296 36.6441C25.7296 36.6441 33.3948 32.6707 29.8739 27.7038C26.5854 23.0681 24.067 20.7626 37.7102 12.8279ZM36.9645 46.0014C36.8977 46.1182 36.8154 46.2255 36.72 46.3202C52.4048 42.1873 46.6346 31.7386 39.1406 34.3876C38.7358 34.5368 38.3861 34.8063 38.1381 35.1602C38.5757 35.0013 39.0254 34.8783 39.4829 34.7923C43.2727 33.9952 48.7128 39.8818 36.9645 46.0014ZM42.7299 53.6417C42.7299 53.6417 44.5025 55.1011 40.7861 56.2416C33.7077 58.3878 11.348 59.0378 5.13768 56.3275C2.90049 55.3586 7.0937 53.9974 8.41401 53.7153C9.78322 53.421 10.5779 53.47 10.5779 53.47C8.09616 51.7163 -5.4737 56.9161 3.6829 58.4C28.6514 62.4716 49.2092 56.5727 42.7299 53.6417ZM15.3994 48.5645C5.77828 51.2625 21.2553 56.8303 33.5048 51.5691C32.3101 51.1035 31.1569 50.5374 30.0573 49.8767C24.5927 50.9192 22.0621 50.9927 17.0987 50.4286C13.0033 49.9626 15.3994 48.5645 15.3994 48.5645ZM37.3801 60.4849C27.759 62.2999 15.8884 62.0914 8.859 60.9264C8.859 60.9141 10.3016 62.116 17.71 62.5943C28.9815 63.3178 46.2922 62.1895 46.6957 56.8425C46.6957 56.8425 45.9133 58.8661 37.3801 60.4849ZM32.05 43.2911C24.8128 44.6892 20.6195 44.6524 15.3261 44.1005C11.2307 43.6713 13.908 41.6845 13.908 41.6845C3.29658 45.2165 19.8005 49.2145 34.6295 44.8609C33.6711 44.5214 32.7929 43.9869 32.05 43.2911Z" fill="#FCBE36"/>
</g>
<defs>
<clipPath id="clip0_9_39">
<rect width="47" height="63" fill="white"/>
</clipPath>
</defs>
</svg>
