<svg width="257" height="292" viewBox="0 0 257 292" fill="none" xmlns="http://www.w3.org/2000/svg">
<g clip-path="url(#clip0_9_41)">
<path fill-rule="evenodd" clip-rule="evenodd" d="M23.79 262.01L-0.00999832 0.0100098L256.39 0.11001L232.79 261.81L127.99 291.41L23.79 262.01ZM233.39 23.31H128.39L129.19 270.81L213.49 247.71L233.39 23.31ZM93.09 56.21L92.79 190.51L43.29 177.01L43.39 207.71L118.59 228.01V56.21H93.09Z" fill="#FCBE36"/>
<path fill-rule="evenodd" clip-rule="evenodd" d="M128.39 23.21H233.39L213.49 247.61L128.39 270.71V23.21ZM208.09 210.01L214.99 126.11L163.99 131.81V87.01L218.39 86.81L220.59 56.21L138.49 56.61L139.59 168.01L189.19 159.51L188.49 184.31L138.49 197.61L138.99 228.01L208.09 210.01Z" fill="#FFD373"/>
</g>
<defs>
<clipPath id="clip0_9_41">
<rect width="257" height="292" fill="white"/>
</clipPath>
</defs>
</svg>
