<svg width="51" height="58" viewBox="0 0 51 58" fill="none" xmlns="http://www.w3.org/2000/svg">
<g clip-path="url(#clip0_9_47)">
<path d="M23.2277 1.37227C24.6024 0.569131 26.3929 0.565503 27.7664 1.37227C34.6764 5.35756 41.5885 9.3366 48.4973 13.3243C49.7968 14.0714 50.666 15.5475 50.6528 17.0758V41.0528C50.6625 42.6444 49.7074 44.1558 48.3364 44.8859C41.4491 48.8493 34.5654 52.8174 27.6793 56.7807C26.2762 57.5996 24.4497 57.5365 23.0904 56.6505C21.0256 55.4288 18.9573 54.2131 16.8923 52.9926C16.4703 52.7358 15.9946 52.5314 15.6967 52.1138C15.9601 51.7515 16.431 51.7063 16.8137 51.5481C17.6756 51.2684 18.4672 50.8193 19.259 50.3836C19.4592 50.2437 19.7037 50.2973 19.8956 50.4225C21.6612 51.4558 23.4113 52.5191 25.1829 53.5426C25.5608 53.7653 25.9435 53.4696 26.2665 53.2858C33.0251 49.387 39.7919 45.5029 46.5492 41.6028C46.7996 41.4799 46.938 41.2086 46.9177 40.9287C46.9224 33.0192 46.9189 25.1083 46.9201 17.1987C46.9487 16.8811 46.7686 16.5891 46.4872 16.4591C39.6239 12.5139 32.764 8.56268 25.9018 4.61649C25.7829 4.53306 25.6421 4.4883 25.4978 4.48809C25.3535 4.48787 25.2126 4.53221 25.0934 4.61528C18.2312 8.56268 11.3726 12.5175 4.51037 16.4625C4.22998 16.5927 4.0418 16.8799 4.07517 17.1987C4.07636 25.1083 4.07517 33.0192 4.07517 40.9299C4.06327 41.0665 4.09266 41.2035 4.15939 41.3225C4.22611 41.4416 4.32696 41.5368 4.44836 41.5956C6.27958 42.6555 8.11316 43.7079 9.94555 44.7642C10.9779 45.3314 12.2453 45.6683 13.3827 45.2338C14.3863 44.8664 15.0899 43.821 15.0707 42.7333C15.0802 34.8699 15.066 27.0054 15.0778 19.1432C15.0528 18.7942 15.3772 18.5057 15.7097 18.5386C16.5896 18.5325 17.4706 18.5265 18.3505 18.541C18.7178 18.5326 18.9705 18.9084 18.9251 19.2601C18.9215 27.1733 18.9346 35.0866 18.9192 42.9997C18.9215 45.1087 18.0727 47.4034 16.1615 48.4353C13.807 49.6802 10.8969 49.4162 8.57086 48.2225C6.5572 47.1966 4.63555 45.986 2.65763 44.887C1.28314 44.1608 0.33278 42.6434 0.342455 41.053V17.0758C0.328041 15.5159 1.2318 14.013 2.57174 13.2767C9.45784 9.3102 16.3427 5.34063 23.2277 1.37227Z" fill="#FCBE36"/>
<path d="M29.2377 17.9829C32.241 17.7856 35.4562 17.866 38.1587 19.3762C40.2512 20.5334 41.4112 22.9622 41.4482 25.335C41.3897 25.655 41.0619 25.8316 40.7626 25.8096C39.8912 25.8084 39.0196 25.8217 38.1483 25.8036C37.7786 25.8181 37.5638 25.4702 37.5174 25.1367C37.267 24.0014 36.6604 22.877 35.6135 22.3294C34.0064 21.5081 32.143 21.5494 30.3906 21.5666C29.1113 21.6359 27.7356 21.7489 26.6518 22.5168C25.8197 23.0985 25.5669 24.2727 25.8639 25.2183C26.1439 25.8973 26.9118 26.1164 27.5401 26.3183C31.1595 27.2845 34.9949 27.1884 38.5452 28.4599C40.015 28.9782 41.4529 29.986 41.956 31.5568C42.6141 33.6621 42.3257 36.1785 40.8582 37.8687C39.6681 39.2595 37.9348 40.0165 36.2061 40.4276C33.9063 40.951 31.5197 40.9643 29.1841 40.732C26.988 40.4764 24.7027 39.8875 23.0073 38.3602C21.5576 37.0754 20.8495 35.0735 20.9198 33.1413C20.9366 32.815 21.2549 32.5875 21.5611 32.6143C22.4386 32.607 23.3161 32.6046 24.1936 32.6155C24.5441 32.5899 24.804 32.899 24.8219 33.2362C24.9839 34.3179 25.3821 35.4532 26.3062 36.0945C28.0896 37.2689 30.3274 37.1884 32.3695 37.2213C34.0613 37.1447 35.9605 37.1215 37.3411 35.9802C38.0695 35.3292 38.2853 34.2401 38.0884 33.3031C37.8752 32.5121 37.0644 32.1435 36.3682 31.9024C32.7952 30.7488 28.917 31.1674 25.3786 29.8628C23.9421 29.3446 22.553 28.365 22.0011 26.8586C21.231 24.7267 21.5838 22.0898 23.2052 20.4567C24.786 18.8322 27.068 18.2069 29.2377 17.9829Z" fill="#FCBE36"/>
</g>
<defs>
<clipPath id="clip0_9_47">
<rect width="51" height="58" fill="white"/>
</clipPath>
</defs>
</svg>
