<svg width="93" height="74" viewBox="0 0 93 74" fill="none" xmlns="http://www.w3.org/2000/svg">
<path d="M46.5 15.1034C71.4066 15.1034 90.5588 25.5386 90.5588 36.9999C90.5588 48.4612 71.392 58.8964 46.5 58.8964C21.5934 58.8964 2.44125 48.4612 2.44125 36.9999C2.44125 25.5386 21.608 15.1034 46.5 15.1034ZM46.5 12.6753C20.8233 12.6753 0 23.5585 0 36.9999C0 50.4413 20.8233 61.3245 46.5 61.3245C72.1767 61.3245 93 50.4413 93 36.9999C93 23.5585 72.1767 12.6753 46.5 12.6753ZM31.7072 35.0487C30.5592 40.9022 26.505 40.2952 21.5208 40.2952L23.5116 30.0913C29.0334 30.0913 32.7825 29.4987 31.7072 35.0487ZM14.1534 50.6292H19.4864L20.7506 44.1542C26.723 44.1542 30.4284 44.5878 33.8578 41.3936C37.6505 37.9249 38.6386 31.7534 35.9358 28.6604C34.5263 27.0417 32.2594 26.2468 29.1788 26.2468H18.9052L14.1534 50.6292ZM41.138 19.7573H46.4419L45.1777 26.2323C49.755 26.2323 53.9981 25.8999 56.047 27.7788C58.1977 29.7444 57.1659 32.2593 54.8409 44.1253H49.4644C51.7022 32.6495 52.1236 31.6956 51.3098 30.8284C50.5252 29.9901 48.7378 30.1636 44.422 30.1636L41.6902 44.1253H36.3862L41.138 19.7573ZM73.3828 35.0487C72.2203 40.989 68.0498 40.2952 63.1964 40.2952L65.1872 30.0913C70.7381 30.0913 74.4581 29.4987 73.3828 35.0487ZM55.8291 50.6292H61.1766L62.4408 44.1542C68.7183 44.1542 72.1913 44.5155 75.548 41.3936C79.3406 37.9249 80.3288 31.7534 77.6259 28.6604C76.2164 27.0417 73.9495 26.2468 70.8689 26.2468H60.5953L55.8291 50.6292Z" fill="#FCBE36"/>
</svg>
